<?xml version="1.0" encoding="UTF-8" standalone="no"?>
<svg
   xmlns:dc="http://purl.org/dc/elements/1.1/"
   xmlns:cc="http://creativecommons.org/ns#"
   xmlns:rdf="http://www.w3.org/1999/02/22-rdf-syntax-ns#"
   xmlns:svg="http://www.w3.org/2000/svg"
   xmlns="http://www.w3.org/2000/svg"
   xmlns:sodipodi="http://sodipodi.sourceforge.net/DTD/sodipodi-0.dtd"
   xmlns:inkscape="http://www.inkscape.org/namespaces/inkscape"
   fill="#000000"
   height="48"
   viewBox="0 0 24 24"
   width="48"
   version="1.1"
   id="svg869"
   sodipodi:docname="unverified.svg"
   inkscape:version="0.92.2 (5c3e80d, 2017-08-06)">
  <metadata
     id="metadata875">
    <rdf:RDF>
      <cc:Work
         rdf:about="">
        <dc:format>image/svg+xml</dc:format>
        <dc:type
           rdf:resource="http://purl.org/dc/dcmitype/StillImage" />
        <dc:title />
      </cc:Work>
    </rdf:RDF>
  </metadata>
  <defs
     id="defs873" />
  <sodipodi:namedview
     pagecolor="#ffffff"
     bordercolor="#666666"
     borderopacity="1"
     objecttolerance="10"
     gridtolerance="10"
     guidetolerance="10"
     inkscape:pageopacity="0"
     inkscape:pageshadow="2"
     inkscape:window-width="1315"
     inkscape:window-height="713"
     id="namedview871"
     showgrid="false"
     inkscape:zoom="11.083333"
     inkscape:cx="24"
     inkscape:cy="20.390977"
     inkscape:window-x="51"
     inkscape:window-y="27"
     inkscape:window-maximized="1"
     inkscape:current-layer="svg869"
     inkscape:measure-start="41.1429,12"
     inkscape:measure-end="38.1654,5.14286" />
  <path
     d="M0 0h24v24H0z"
     fill="none"
     id="path865" />
  <path
     d="M 12,1 3,5 v 6 c 0,5.55 3.84,10.74 9,12 5.16,-1.26 9,-6.45 9,-12 V 5 Z"
     id="path867"
     inkscape:connector-curvature="0"
     sodipodi:nodetypes="ccscscc"
     style="fill:none;fill-opacity:1;stroke:#e5e5e5;stroke-opacity:1" />
  <g
     style="fill:#000000;stroke-width:0.29569246;stroke-miterlimit:4;stroke-dasharray:none"
     id="g891"
     transform="matrix(0.63909774,0,0,0.63909774,4.3308271,3.9248121)">
    <path
       id="path877"
       d="M 0,0 H 24 V 24 H 0 Z"
       inkscape:connector-curvature="0"
       style="fill:none;stroke-width:0.29569246;stroke-miterlimit:4;stroke-dasharray:none" />
  </g>
  <g
     style="fill:#000000"
     id="g1657"
     transform="matrix(0.53383459,0,0,0.60150376,5.593985,4.7819549)">
    <path
       id="path1643"
       d="M 19,6.41 17.59,5 12,10.59 6.41,5 5,6.41 10.59,12 5,17.59 6.41,19 12,13.41 17.59,19 19,17.59 13.41,12 Z"
       inkscape:connector-curvature="0"
       style="stroke:none;stroke-opacity:0.5411765;fill:#e5e5e5;fill-opacity:1" />
    <path
       id="path1645"
       d="M 0,0 H 24 V 24 H 0 Z"
       inkscape:connector-curvature="0"
       style="fill:none" />
  </g>
</svg>
